# xmcd CD database file
#
# Track frame offsets:
#	150
#	14621
#	24168
#	37934
#	49700
#	72617
#	84911
#	90601
#	110201
#	132865
#	145018
#	162246
#
# Disc length: 2306 seconds
#
# Revision: 0
# Processed by: cddbd v1.5.1PL0 Copyright (c) Steve Scherf et al.
# Submitted via: CDex 1.51
#
DISCID=9809000c
DTITLE=Al Perkins - Triple Play
DYEAR=2004
DGENRE=country rock
TTITLE0=Cuttin' Loose - Buckaroo
TTITLE1=I'm Gonna Love You Too
TTITLE2=So True
TTITLE3=Sweet Susannah
TTITLE4=Because He Lives
TTITLE5=Hambone Boogie
TTITLE6=Foggy Mountain Rock
TTITLE7=Big Boss Man
TTITLE8=Crossroads
TTITLE9=Just Before Dawn
TTITLE10=Western Man
TTITLE11=Sweet Georgia Brown
EXTD=YEAR: 2004
EXTT0=
EXTT1=
EXTT2=
EXTT3=
EXTT4=
EXTT5=
EXTT6=
EXTT7=
EXTT8=
EXTT9=
EXTT10=
EXTT11=
PLAYORDER=
